<svg id="svg" xmlns="http://www.w3.org/2000/svg" xmlns:xlink="http://www.w3.org/1999/xlink" width="400" height="87.32394366197182" viewBox="0, 0, 400,87.32394366197182"><g id="svgg"><path id="path0" d="M0.826 5.038 C 1.272 11.520,1.282 77.033,0.838 81.690 L 0.501 85.211 30.415 85.211 C 46.868 85.211,61.015 85.364,61.854 85.552 L 63.380 85.892 63.380 75.760 C 63.380 66.285,63.327 65.651,62.559 65.987 C 62.107 66.186,52.795 66.443,41.867 66.560 L 21.996 66.772 22.230 34.912 C 22.359 17.389,22.533 2.418,22.617 1.643 L 22.770 0.235 11.624 0.109 L 0.477 -0.017 0.826 5.038 M69.953 7.972 L 69.953 15.962 80.528 15.962 L 91.103 15.962 90.974 8.099 L 90.845 0.235 80.399 0.108 L 69.953 -0.018 69.953 7.972 M96.948 42.488 L 96.948 84.977 106.925 84.977 L 116.901 84.977 116.901 82.639 L 116.901 80.301 120.098 82.369 C 132.158 90.170,151.318 87.527,159.489 76.936 C 169.597 63.834,169.096 39.677,158.491 28.861 C 149.619 19.813,131.279 18.293,120.243 25.691 C 118.595 26.796,117.139 27.700,117.009 27.700 C 116.878 27.700,116.874 21.467,116.999 13.850 L 117.228 0.000 107.088 0.000 L 96.948 0.000 96.948 42.488 M285.859 0.213 C 285.732 0.340,285.781 1.664,285.967 3.156 C 286.419 6.772,286.434 77.763,285.984 81.808 L 285.632 84.977 296.477 84.977 L 307.322 84.977 306.926 80.869 C 306.518 76.629,306.626 2.194,307.043 0.939 C 307.271 0.252,286.531 -0.459,285.859 0.213 M312.612 0.221 C 312.481 0.352,312.532 1.571,312.725 2.929 C 313.175 6.086,313.178 78.681,312.729 82.277 L 312.392 84.977 323.237 84.977 L 334.083 84.977 333.687 80.869 C 333.278 76.629,333.387 2.194,333.804 0.939 C 334.034 0.247,313.289 -0.456,312.612 0.221 M245.568 20.668 C 227.928 23.128,217.272 37.235,218.471 56.539 C 219.693 76.216,231.335 87.091,251.174 87.088 C 265.747 87.085,275.126 82.224,280.472 71.904 C 282.635 67.727,283.175 68.218,273.474 65.544 C 269.085 64.334,265.176 63.249,264.789 63.134 C 264.308 62.991,263.806 63.600,263.208 65.051 C 258.606 76.214,237.559 72.325,237.559 60.311 C 237.559 59.718,240.666 59.624,260.364 59.624 L 283.169 59.624 282.866 55.282 C 281.124 30.305,267.450 17.615,245.568 20.668 M363.146 21.417 C 350.864 23.176,342.487 29.232,339.701 38.365 C 339.319 39.615,338.923 39.500,349.061 41.088 C 353.192 41.736,357.145 42.383,357.844 42.527 C 358.944 42.754,359.203 42.579,359.769 41.223 C 363.141 33.154,379.026 33.720,379.707 41.934 L 379.916 44.451 373.174 44.772 C 348.186 45.958,337.324 52.589,337.324 66.656 C 337.324 74.118,339.564 78.901,344.710 82.431 C 352.407 87.711,368.375 87.720,377.113 82.448 L 379.812 80.820 379.812 82.898 L 379.812 84.977 389.959 84.977 L 400.107 84.977 399.810 83.451 C 399.647 82.612,399.396 72.101,399.252 60.094 C 398.904 31.036,398.186 28.525,388.985 24.219 C 384.022 21.897,370.233 20.401,363.146 21.417 M201.925 22.526 C 197.759 23.655,194.915 25.248,192.176 27.987 L 190.141 30.022 190.141 26.279 L 190.141 22.535 179.809 22.535 L 169.478 22.535 169.833 26.643 C 170.294 31.983,170.294 75.529,169.833 80.869 L 169.478 84.977 180.190 84.977 L 190.901 84.977 190.501 81.338 C 189.750 74.514,190.256 50.272,191.192 48.198 C 194.482 40.910,202.599 37.948,212.141 40.552 C 213.784 41.000,215.241 41.254,215.380 41.115 C 215.713 40.782,220.143 24.402,220.168 23.412 C 220.213 21.667,207.391 21.044,201.925 22.526 M69.845 24.765 C 70.291 27.664,70.293 81.453,69.847 83.451 L 69.507 84.977 80.176 84.977 L 90.845 84.977 90.845 53.756 L 90.845 22.535 80.173 22.535 L 69.502 22.535 69.845 24.765 M257.113 37.377 C 259.749 38.624,261.372 40.452,262.588 43.545 L 263.373 45.540 250.700 45.540 C 242.302 45.540,238.028 45.376,238.028 45.055 C 238.028 38.270,249.360 33.711,257.113 37.377 M138.611 38.134 C 148.019 42.130,149.470 60.122,140.986 67.590 C 134.007 73.734,123.124 70.846,118.957 61.744 C 112.284 47.168,124.716 32.233,138.611 38.134 M379.812 60.415 C 379.812 70.746,358.841 77.126,357.008 67.353 C 355.983 61.892,363.002 58.440,375.469 58.274 L 379.812 58.216 379.812 60.415 " stroke="none" fill="#000000" fill-rule="evenodd"></path></g></svg>