<?xml version="1.0" standalone="no"?>
<!DOCTYPE svg PUBLIC "-//W3C//DTD SVG 20010904//EN"
 "http://www.w3.org/TR/2001/REC-SVG-20010904/DTD/svg10.dtd">
<svg version="1.0" xmlns="http://www.w3.org/2000/svg"
 width="1080.000000pt" height="1080.000000pt" viewBox="0 0 1080.000000 1080.000000"
 preserveAspectRatio="xMidYMid meet">
<metadata>
Created by potrace 1.11, written by Peter Selinger 2001-2013
</metadata>
<g transform="translate(0.000000,1080.000000) scale(0.100000,-0.100000)"
fill="#000000" stroke="none">
<path d="M3064 9423 c7 -37 33 -305 46 -478 25 -338 30 -891 30 -3575 0 -3177
-5 -3463 -64 -3855 -7 -49 -12 -92 -10 -94 2 -2 153 2 336 8 436 15 4553 15
4909 1 231 -10 492 -28 642 -46 l57 -7 0 922 c0 506 -2 921 -5 921 -3 0 -92
-9 -198 -20 -387 -39 -576 -43 -2177 -44 l-1545 -1 0 2780 c0 2172 3 2817 13
2950 14 184 49 519 58 548 5 16 -49 17 -1046 17 l-1052 0 6 -27z"/>
<path d="M5920 4335 l0 -1145 205 0 205 0 0 1145 0 1145 -205 0 -205 0 0
-1145z m170 -85 l0 -850 -45 0 -45 0 0 850 0 850 45 0 45 0 0 -850z m170 -510
l0 -340 -50 0 -50 0 0 333 c0 184 3 337 7 340 3 4 26 7 50 7 l43 0 0 -340z"/>
<path d="M5160 4715 l0 -505 120 0 120 0 0 505 0 505 -120 0 -120 0 0 -505z"/>
<path d="M6552 5037 c-105 -19 -113 -22 -109 -41 3 -12 76 -421 163 -911 87
-490 159 -892 161 -894 5 -7 217 30 227 39 4 4 -64 415 -153 912 -89 496 -161
906 -161 911 0 4 -3 6 -7 6 -5 -1 -59 -11 -121 -22z"/>
<path d="M5500 4250 l0 -720 165 0 165 0 -2 718 -3 717 -162 3 -163 2 0 -720z"/>
<path d="M6912 4782 c-57 -25 -62 -29 -57 -52 11 -42 21 -44 89 -15 66 28 75
40 56 76 -13 23 -11 23 -88 -9z"/>
<path d="M6973 4623 c-60 -25 -61 -26 -51 -54 5 -16 14 -31 18 -34 8 -5 140
50 140 59 0 16 -25 56 -34 55 -6 0 -39 -12 -73 -26z"/>
<path d="M7053 4471 c-34 -15 -65 -29 -68 -32 -4 -5 508 -1225 519 -1237 7 -6
141 56 139 65 -3 18 -514 1218 -521 1224 -4 4 -35 -5 -69 -20z"/>
<path d="M5160 4035 l0 -75 120 0 120 0 0 75 0 75 -120 0 -120 0 0 -75z"/>
<path d="M5160 3525 l0 -335 120 0 120 0 0 335 0 335 -120 0 -120 0 0 -335z"/>
<path d="M5500 3310 l0 -120 165 0 165 0 0 120 0 120 -165 0 -165 0 0 -120z"/>
</g>
</svg>
